# xmcd
# Track frame offsets:
# 150
# 15900
# 33300
# 48900
# 65549
# 85050
# 102782
# 120891
# 136491
#
# Disc length: 2050 seconds
# Revision: 0
# Processed by: cddbd v1.5.1PL0 Copyright (c) Steve Scherf et al.
# Submitted via: VisiTrax 2.9.10.228 - For more info visit www.synapsa.com
#
DISCID=62080009
DTITLE=Various Artist - Hits Monthly Nashville  PHN0301
DYEAR=1900
DGENRE=Karaoke
TTITLE0=Carter, Deana - Theres No Limit
TTITLE1=Womack, Lee Ann - Forever Everyday
TTITLE2=Wills, Mark - Nineteen Somethin
TTITLE3=Chesnutt, Mark - I Want My Baby Back
TTITLE4=Twain, Shania - Im Gonna Getcha Good
TTITLE5=Smith, Anthony - John J. Blanchard
TTITLE6=Nichols, Joe - Brokenheartsville
TTITLE7=Holy, Steve - Im Not Breakin
TTITLE8=Allan, Gary - Man To Man
EXTD=
EXTT0=
EXTT1=
EXTT2=
EXTT3=
EXTT4=
EXTT5=
EXTT6=
EXTT7=
EXTT8=
PLAYORDER=
